<svg width="33" height="32" viewBox="0 0 33 32" fill="none" xmlns="http://www.w3.org/2000/svg">
<g id="package" clip-path="url(#clip0_454_6629)">
<g id="Group">
<path id="Vector" d="M31.2167 7.54411C31.2167 7.42254 31.1897 7.30097 31.1356 7.18616C31.0276 6.95652 30.8182 6.80118 30.5886 6.75391L16.8309 0.0810469C16.608 -0.0270156 16.3446 -0.0270156 16.1217 0.0810469L2.22892 6.81469C1.95876 6.94301 1.78316 7.21317 1.76965 7.5171V7.52385C1.76965 7.5306 1.76965 7.53736 1.76965 7.55087V24.4491C1.76965 24.7598 1.94525 25.0435 2.22892 25.1786L16.1217 31.9122C16.1285 31.9122 16.1285 31.9122 16.1352 31.919C16.1555 31.9257 16.1757 31.9325 16.196 31.946C16.2027 31.946 16.2095 31.9527 16.223 31.9527C16.2433 31.9595 16.2635 31.9662 16.2838 31.973C16.2905 31.973 16.2973 31.9797 16.3041 31.9797C16.3243 31.9865 16.3513 31.9865 16.3716 31.9932C16.3783 31.9932 16.3851 31.9932 16.3919 31.9932C16.4189 31.9932 16.4526 32 16.4797 32C16.5067 32 16.5404 32 16.5675 31.9932C16.5742 31.9932 16.581 31.9932 16.5877 31.9932C16.608 31.9932 16.635 31.9865 16.6553 31.9797C16.662 31.9797 16.6688 31.973 16.6755 31.973C16.6958 31.9662 16.716 31.9595 16.7363 31.9527C16.7431 31.9527 16.7498 31.946 16.7633 31.946C16.7836 31.9392 16.8038 31.9325 16.8241 31.919C16.8309 31.919 16.8309 31.919 16.8376 31.9122L30.7709 25.1583C31.0478 25.0232 31.2302 24.7396 31.2302 24.4289V7.56437C31.2167 7.55762 31.2167 7.55087 31.2167 7.54411ZM16.4729 1.70874L28.5219 7.55087L24.0846 9.70536L12.0356 3.86323L16.4729 1.70874ZM16.4729 13.393L4.42394 7.55087L10.1783 4.7615L22.2272 10.6036L16.4729 13.393ZM3.39059 8.85437L15.6624 14.8046V29.886L3.39059 23.9358V8.85437ZM17.2834 29.886V14.8046L23.0445 12.0084V15.9527C23.0445 16.3985 23.4092 16.7632 23.8549 16.7632C24.3007 16.7632 24.6654 16.3985 24.6654 15.9527V11.2182L29.5957 8.82735V23.9088L17.2834 29.886Z" fill="#FF6316"/>
</g>
</g>
<defs>
<clipPath id="clip0_454_6629">
<rect width="32" height="32" fill="white" transform="translate(0.5)"/>
</clipPath>
</defs>
</svg>
