<svg width="25" height="25" viewBox="0 0 25 25" fill="none" xmlns="http://www.w3.org/2000/svg">
<g id="svgexport-6 (5) 1" clip-path="url(#clip0_1915_21164)">
<g id="Group">
<path id="Vector" d="M24.6643 7.06849C24.6079 5.79103 24.4014 4.91279 24.1054 4.15179C23.8001 3.34399 23.3305 2.62078 22.7151 2.01957C22.1139 1.409 21.3859 0.934565 20.5875 0.634051C19.8221 0.338124 18.9484 0.131544 17.671 0.0752201C16.384 0.0141267 15.9754 0 12.7112 0C9.44704 0 9.03847 0.0141267 7.75624 0.0704501C6.47878 0.126773 5.60054 0.333537 4.83971 0.629281C4.03174 0.934565 3.30852 1.40423 2.70731 2.01957C2.09675 2.62078 1.62249 3.34876 1.32179 4.1472C1.02587 4.91279 0.819288 5.78626 0.762964 7.06372C0.701871 8.35072 0.687744 8.7593 0.687744 12.0235C0.687744 15.2877 0.701871 15.6962 0.758194 16.9785C0.814518 18.2559 1.02128 19.1342 1.31721 19.8952C1.62249 20.703 2.09675 21.4262 2.70731 22.0274C3.30852 22.638 4.03651 23.1124 4.83494 23.4129C5.60054 23.7088 6.47401 23.9154 7.75165 23.9717C9.0337 24.0283 9.44245 24.0422 12.7066 24.0422C15.9708 24.0422 16.3794 24.0283 17.6616 23.9717C18.9391 23.9154 19.8173 23.7088 20.5782 23.4129C22.1939 22.7882 23.4714 21.5108 24.0961 19.8952C24.3918 19.1296 24.5986 18.2559 24.6549 16.9785C24.7112 15.6962 24.7254 15.2877 24.7254 12.0235C24.7254 8.7593 24.7206 8.35072 24.6643 7.06849ZM22.4992 16.8845C22.4475 18.0587 22.2502 18.6928 22.0859 19.1155C21.6819 20.1629 20.8506 20.9941 19.8032 21.3981C19.3805 21.5625 18.7419 21.7597 17.5723 21.8113C16.3042 21.8678 15.9239 21.8817 12.716 21.8817C9.50813 21.8817 9.12304 21.8678 7.85953 21.8113C6.68536 21.7597 6.05131 21.5625 5.62861 21.3981C5.10739 21.2055 4.63295 20.9002 4.24786 20.501C3.84864 20.1111 3.54336 19.6415 3.35072 19.1202C3.18634 18.6975 2.98911 18.0587 2.93756 16.8893C2.88105 15.6212 2.86711 15.2407 2.86711 12.0328C2.86711 8.82498 2.88105 8.43989 2.93756 7.17655C2.98911 6.00239 3.18634 5.36833 3.35072 4.94563C3.54336 4.42423 3.84864 3.94998 4.25263 3.5647C4.64231 3.16548 5.11197 2.8602 5.63338 2.66775C6.05608 2.50336 6.6949 2.30614 7.8643 2.2544C9.1324 2.19808 9.5129 2.18395 12.7206 2.18395C15.9332 2.18395 16.3135 2.19808 17.5771 2.2544C18.7512 2.30614 19.3853 2.50336 19.808 2.66775C20.3292 2.8602 20.8036 3.16548 21.1887 3.5647C21.5879 3.95456 21.8932 4.42423 22.0859 4.94563C22.2502 5.36833 22.4475 6.00697 22.4992 7.17655C22.5555 8.44466 22.5697 8.82498 22.5697 12.0328C22.5697 15.2407 22.5555 15.6164 22.4992 16.8845Z" fill="white"/>
<path id="Vector_2" d="M12.7113 5.84717C9.30161 5.84717 6.53516 8.61344 6.53516 12.0233C6.53516 15.4332 9.30161 18.1994 12.7113 18.1994C16.1211 18.1994 18.8874 15.4332 18.8874 12.0233C18.8874 8.61344 16.1211 5.84717 12.7113 5.84717ZM12.7113 16.0296C10.4993 16.0296 8.70498 14.2355 8.70498 12.0233C8.70498 9.81109 10.4993 8.01699 12.7113 8.01699C14.9235 8.01699 16.7176 9.81109 16.7176 12.0233C16.7176 14.2355 14.9235 16.0296 12.7113 16.0296Z" fill="white"/>
<path id="Vector_3" d="M20.5736 5.60297C20.5736 6.39921 19.928 7.04482 19.1315 7.04482C18.3353 7.04482 17.6897 6.39921 17.6897 5.60297C17.6897 4.80656 18.3353 4.16113 19.1315 4.16113C19.928 4.16113 20.5736 4.80656 20.5736 5.60297Z" fill="white"/>
</g>
</g>
<defs>
<clipPath id="clip0_1915_21164">
<rect width="24" height="24.0423" fill="white" transform="translate(0.666626)"/>
</clipPath>
</defs>
</svg>
