<svg width="32" height="32" viewBox="0 0 32 32" fill="none" xmlns="http://www.w3.org/2000/svg">
<g id="shopping-bag" clip-path="url(#clip0_454_6617)">
<g id="Group">
<g id="Group_2">
<path id="Vector" d="M28.7841 27.7342L26.9426 6.98158C26.9095 6.5709 26.5651 6.25957 26.1478 6.25957H22.2662C22.2596 2.80853 19.451 0 16 0C12.5489 0 9.74041 2.80853 9.73379 6.25957H5.85219C5.44151 6.25957 5.09707 6.5709 5.05732 6.98158L3.21588 27.7342C3.21588 27.7607 3.21588 27.7806 3.21588 27.8071C3.21588 30.1188 5.34215 32 7.95196 32H24.048C26.6578 32 28.7841 30.1188 28.7841 27.8071C28.7841 27.7806 28.7841 27.7607 28.7841 27.7342ZM16 1.58973C18.5767 1.58973 20.6698 3.68288 20.6765 6.25957H11.3235C11.3301 3.68288 13.4233 1.58973 16 1.58973ZM24.048 30.4036H7.95196C6.22975 30.4036 4.82549 29.2577 4.80561 27.8336L6.58082 7.84931H9.73379V10.638C9.73379 11.0751 10.0915 11.4328 10.5287 11.4328C10.9658 11.4328 11.3235 11.0751 11.3235 10.638V7.84931H20.6765V10.638C20.6765 11.0751 21.0341 11.4328 21.4713 11.4328C21.9085 11.4328 22.2662 11.0751 22.2662 10.638V7.84931H25.4192L27.1944 27.8402C27.1745 29.2577 25.7702 30.4036 24.048 30.4036Z" fill="#FF6316"/>
<path id="Vector_2" d="M19.3052 16.5465L14.6155 21.2362L12.7012 19.3219C12.3899 19.0105 11.8865 19.0105 11.5752 19.3219C11.2638 19.6332 11.2638 20.1366 11.5752 20.4479L14.0525 22.9253C14.2048 23.0776 14.4102 23.1571 14.6155 23.1571C14.8209 23.1571 15.0196 23.0776 15.1786 22.9253L20.4313 17.6725C20.7426 17.3612 20.7426 16.8578 20.4313 16.5465C20.12 16.2418 19.6166 16.2418 19.3052 16.5465Z" fill="#FF6316"/>
</g>
</g>
</g>
<defs>
<clipPath id="clip0_454_6617">
<rect width="32" height="32" fill="white"/>
</clipPath>
</defs>
</svg>
