<svg width="40" height="40" viewBox="0 0 40 40" fill="none" xmlns="http://www.w3.org/2000/svg">
<g id="Social Media">
<g id="pinterest 1">
<path id="Vector" d="M20.2447 11C15.3114 11 12.6877 14.1614 12.6877 17.6085C12.6877 19.2072 13.581 21.2008 15.011 21.8331C15.2281 21.931 15.3462 21.8894 15.3946 21.688C15.4374 21.535 15.6253 20.7981 15.7164 20.4504C15.7445 20.339 15.7299 20.2423 15.6399 20.1377C15.1651 19.5886 14.7882 18.5885 14.7882 17.6502C14.7882 15.2459 16.6997 12.9115 19.9522 12.9115C22.7648 12.9115 24.7325 14.7385 24.7325 17.352C24.7325 20.3053 23.1698 22.3484 21.1391 22.3484C20.0152 22.3484 19.1782 21.4663 19.4437 20.375C19.7643 19.0756 20.3932 17.6783 20.3932 16.7411C20.3932 15.9007 19.9184 15.2054 18.9486 15.2054C17.8045 15.2054 16.8763 16.3384 16.8763 17.8594C16.8763 18.8259 17.2183 19.4784 17.2183 19.4784C17.2183 19.4784 16.0865 24.0506 15.8761 24.9045C15.5206 26.3502 15.9245 28.6914 15.9594 28.8928C15.9808 29.0042 16.1056 29.0391 16.1754 28.9479C16.2868 28.8017 17.6548 26.8497 18.0385 25.4389C18.178 24.9248 18.7506 22.84 18.7506 22.84C19.1275 23.5207 20.2155 24.0911 21.3743 24.0911C24.8214 24.0911 27.3123 21.0613 27.3123 17.3014C27.2999 13.6967 24.215 11 20.2447 11Z" fill="#4D4D4D"/>
</g>
</g>
</svg>
