<svg width="20" height="20" viewBox="0 0 20 20" fill="none" xmlns="http://www.w3.org/2000/svg">
<g id="Star 6">
<g id="Group">
<path id="Vector" d="M10.3444 14.9012L14.285 17.3974C14.7887 17.7162 15.4137 17.2418 15.2644 16.6537L14.1262 12.1756C14.0941 12.0508 14.0978 11.9195 14.1369 11.7968C14.1761 11.6741 14.249 11.5649 14.3475 11.4818L17.8812 8.54118C18.345 8.15493 18.1062 7.38431 17.5094 7.34556L12.895 7.04556C12.7707 7.03675 12.6516 6.99283 12.5513 6.91891C12.4511 6.845 12.3739 6.74414 12.3287 6.62806L10.6075 2.29431C10.5606 2.17115 10.4774 2.06514 10.3689 1.99034C10.2604 1.91554 10.1318 1.87549 9.99998 1.87549C9.8682 1.87549 9.73953 1.91554 9.63104 1.99034C9.52254 2.06514 9.43935 2.17115 9.39248 2.29431L7.67123 6.62806C7.62617 6.74425 7.54902 6.84525 7.44877 6.91928C7.34852 6.99331 7.22929 7.03732 7.10498 7.04618L2.4906 7.34618C1.89436 7.38431 1.65436 8.15493 2.11873 8.54118L5.65248 11.4824C5.7508 11.5655 5.82371 11.6746 5.86284 11.7972C5.90198 11.9198 5.90575 12.0509 5.87373 12.1756L4.81873 16.3287C4.63935 17.0343 5.38998 17.6037 5.99373 17.2206L9.65623 14.9012C9.75917 14.8357 9.87862 14.801 10.0006 14.801C10.1226 14.801 10.242 14.8357 10.345 14.9012H10.3444Z" fill="#FF6316"/>
</g>
</g>
</svg>
