<svg width="25" height="24" viewBox="0 0 25 24" fill="none" xmlns="http://www.w3.org/2000/svg">
<g id="svgexport-6 (7) 1">
<g id="Group">
<g id="_x31_0.Linkedin">
<path id="Vector" d="M21.9334 21.5997V14.5677C21.9334 11.1117 21.1894 8.47168 17.1574 8.47168C15.2134 8.47168 13.9174 9.52768 13.3894 10.5357H13.3414V8.78368H9.52539V21.5997H13.5094V15.2397C13.5094 13.5597 13.8214 11.9517 15.8854 11.9517C17.9254 11.9517 17.9494 13.8477 17.9494 15.3357V21.5757H21.9334V21.5997Z" fill="white"/>
<path id="Vector_2" d="M3.04541 8.78369H7.02941V21.5997H3.04541V8.78369Z" fill="white"/>
<path id="Vector_3" d="M5.0374 2.3999C3.7654 2.3999 2.7334 3.4319 2.7334 4.7039C2.7334 5.9759 3.7654 7.0319 5.0374 7.0319C6.3094 7.0319 7.3414 5.9759 7.3414 4.7039C7.3414 3.4319 6.3094 2.3999 5.0374 2.3999Z" fill="white"/>
</g>
</g>
</g>
</svg>
