<svg width="52" height="51" viewBox="0 0 52 51" fill="none" xmlns="http://www.w3.org/2000/svg">
<g id="Email" clip-path="url(#clip0_460_40738)">
<g id="Group">
<g id="Group_2">
<g id="Group_3">
<path id="Vector" d="M48.95 5.94983H3.05C1.64172 5.94983 0.5 7.09145 0.5 8.49983V42.4998C0.5 43.9081 1.64162 45.0498 3.05 45.0498H48.95C50.3583 45.0498 51.5 43.9082 51.5 42.4998V8.49983C51.5 7.09155 50.3584 5.94983 48.95 5.94983ZM49.8 42.4999C49.8 42.9694 49.4195 43.3499 48.95 43.3499H3.05C2.58054 43.3499 2.20003 42.9694 2.20003 42.4999V8.49983C2.20003 8.03037 2.58054 7.64986 3.05 7.64986H48.95C49.4195 7.64986 49.8 8.03037 49.8 8.49983V42.4999Z" fill="#FF6316"/>
<path id="Vector_2" d="M47.3239 9.35314C47.0993 9.33351 46.8761 9.40394 46.7035 9.54897L27.0939 26.0219C26.4614 26.5535 25.5384 26.5535 24.9059 26.0219L5.29654 9.54887C5.06395 9.35363 4.7448 9.29725 4.45942 9.40105C4.17404 9.50484 3.96566 9.75307 3.91286 10.0522C3.86007 10.3513 3.97084 10.6558 4.20342 10.8511L23.8129 27.3232C25.0768 28.3873 26.9231 28.3873 28.1871 27.3232L47.7965 10.8512C47.9692 10.7062 48.0772 10.4986 48.0968 10.274C48.1164 10.0494 48.046 9.82618 47.901 9.65356C47.7561 9.48074 47.5485 9.37276 47.3239 9.35314Z" fill="#FF6316"/>
<path id="Vector_3" d="M16.8483 27.2059C16.5474 27.1388 16.2338 27.2398 16.0286 27.4699L4.12856 40.2199C3.91321 40.4404 3.83412 40.7604 3.92197 41.0558C4.00983 41.3513 4.25079 41.5761 4.55161 41.6432C4.85253 41.7103 5.1661 41.6093 5.37129 41.3792L17.2713 28.6292C17.4867 28.4087 17.5658 28.0888 17.4779 27.7933C17.3901 27.4979 17.1492 27.273 16.8483 27.2059Z" fill="#FF6316"/>
<path id="Vector_4" d="M35.9714 27.4699C35.7663 27.2398 35.4526 27.1388 35.1517 27.2059C34.8508 27.273 34.6099 27.4979 34.5221 27.7933C34.4342 28.0889 34.5133 28.4087 34.7287 28.6292L46.6287 41.3792C46.9514 41.7097 47.479 41.7221 47.8167 41.4069C48.1545 41.0918 48.1788 40.5646 47.8714 40.2198L35.9714 27.4699Z" fill="#FF6316"/>
</g>
</g>
</g>
</g>
<defs>
<clipPath id="clip0_460_40738">
<rect width="51" height="51" fill="white" transform="translate(0.5)"/>
</clipPath>
</defs>
</svg>
