<svg width="52" height="51" viewBox="0 0 52 51" fill="none" xmlns="http://www.w3.org/2000/svg">
<g id="PhoneCall">
<g id="Group">
<path id="Vector" d="M31.9829 7.242C34.9249 8.03327 37.6074 9.58366 39.7616 11.7379C41.9159 13.8921 43.4663 16.5746 44.2575 19.5166" stroke="#FF6316" stroke-width="2" stroke-linecap="round" stroke-linejoin="round"/>
<path id="Vector_2" d="M30.1865 13.95C31.9513 14.4248 33.5604 15.3549 34.8527 16.6472C36.145 17.9395 37.0751 19.5486 37.5499 21.3134" stroke="#FF6316" stroke-width="2" stroke-linecap="round" stroke-linejoin="round"/>
<path id="Vector_3" d="M17.4625 25.6413C19.2621 29.3218 22.2449 32.2917 25.933 34.0755C26.2031 34.2034 26.5018 34.2587 26.7998 34.2359C27.0977 34.213 27.3846 34.1129 27.632 33.9453L33.0639 30.3252C33.3038 30.165 33.5799 30.0672 33.8671 30.0405C34.1544 30.0139 34.4437 30.0592 34.709 30.1725L44.8699 34.5284C45.215 34.675 45.5032 34.9298 45.691 35.2544C45.8788 35.579 45.9561 35.9558 45.9112 36.328C45.5895 38.8409 44.3631 41.1504 42.4616 42.8242C40.56 44.498 38.1135 45.4214 35.5802 45.4216C27.7558 45.4216 20.2518 42.3134 14.7191 36.7807C9.18637 31.248 6.07813 23.744 6.07812 15.9195C6.07836 13.3864 7.00185 10.9402 8.67571 9.0389C10.3496 7.1376 12.659 5.91156 15.1717 5.59033C15.544 5.54543 15.9208 5.6227 16.2454 5.81049C16.5699 5.99829 16.8247 6.28645 16.9713 6.63158L21.3307 16.8011C21.4428 17.0639 21.4883 17.3503 21.4632 17.6348C21.4381 17.9194 21.3431 18.1934 21.1867 18.4324L17.577 23.9476C17.4132 24.1959 17.3165 24.4825 17.2964 24.7794C17.2764 25.0762 17.3336 25.3732 17.4625 25.6413V25.6413Z" stroke="#FF6316" stroke-width="2" stroke-linecap="round" stroke-linejoin="round"/>
</g>
</g>
</svg>
