<svg width="18" height="18" viewBox="0 0 18 18" fill="none" xmlns="http://www.w3.org/2000/svg">
<g id="instagram 1" clip-path="url(#clip0_602_8211)">
<path id="Vector" d="M17.982 5.29242C17.9398 4.33601 17.7852 3.67848 17.5636 3.10873C17.335 2.50395 16.9834 1.9625 16.5227 1.51238C16.0726 1.05526 15.5276 0.700057 14.9298 0.475068C14.3568 0.253513 13.7027 0.0988504 12.7463 0.0566821C11.7827 0.0109426 11.4768 0.000366211 9.03299 0.000366211C6.58916 0.000366211 6.28327 0.0109426 5.32329 0.0531109C4.36688 0.0952792 3.70936 0.250079 3.13975 0.471497C2.53483 0.700057 1.99338 1.05169 1.54326 1.51238C1.08614 1.9625 0.731077 2.50752 0.505951 3.1053C0.284397 3.67848 0.129734 4.33243 0.0875658 5.28884C0.0418264 6.2524 0.03125 6.55829 0.03125 9.00212C0.03125 11.446 0.0418264 11.7519 0.0839946 12.7118C0.126163 13.6682 0.280963 14.3258 0.502517 14.8955C0.731077 15.5003 1.08614 16.0418 1.54326 16.4919C1.99338 16.949 2.5384 17.3042 3.13618 17.5292C3.70936 17.7507 4.36331 17.9054 5.31986 17.9476C6.2797 17.9899 6.58573 18.0003 9.02956 18.0003C11.4734 18.0003 11.7793 17.9899 12.7393 17.9476C13.6957 17.9054 14.3532 17.7507 14.9228 17.5292C16.1325 17.0615 17.0889 16.1051 17.5566 14.8955C17.778 14.3223 17.9328 13.6682 17.975 12.7118C18.0172 11.7519 18.0277 11.446 18.0277 9.00212C18.0277 6.55829 18.0242 6.2524 17.982 5.29242ZM16.3611 12.6415C16.3223 13.5206 16.1747 13.9953 16.0516 14.3118C15.7491 15.0959 15.1268 15.7183 14.3426 16.0207C14.0261 16.1438 13.548 16.2915 12.6724 16.3301C11.723 16.3724 11.4382 16.3828 9.03657 16.3828C6.6349 16.3828 6.34659 16.3724 5.40062 16.3301C4.52155 16.2915 4.04684 16.1438 3.73038 16.0207C3.34015 15.8765 2.98495 15.648 2.69664 15.3491C2.39775 15.0572 2.16919 14.7056 2.02497 14.3153C1.9019 13.9989 1.75424 13.5206 1.71564 12.6451C1.67334 11.6957 1.6629 11.4108 1.6629 9.00913C1.6629 6.60746 1.67334 6.31915 1.71564 5.37332C1.75424 4.49424 1.9019 4.01954 2.02497 3.70307C2.16919 3.3127 2.39775 2.95764 2.70021 2.66919C2.99195 2.37031 3.34358 2.14175 3.73395 1.99766C4.05042 1.87459 4.52869 1.72693 5.40419 1.6882C6.3536 1.64603 6.63847 1.63545 9.04 1.63545C11.4452 1.63545 11.73 1.64603 12.6759 1.6882C13.555 1.72693 14.0297 1.87459 14.3462 1.99766C14.7364 2.14175 15.0916 2.37031 15.3799 2.66919C15.6788 2.96107 15.9074 3.3127 16.0516 3.70307C16.1747 4.01954 16.3223 4.49767 16.3611 5.37332C16.4032 6.32272 16.4138 6.60746 16.4138 9.00913C16.4138 11.4108 16.4032 11.6921 16.3611 12.6415Z" fill="#4D4D4D"/>
<path id="Vector_2" d="M9.03411 4.37817C6.48135 4.37817 4.41016 6.44923 4.41016 9.00212C4.41016 11.555 6.48135 13.6261 9.03411 13.6261C11.587 13.6261 13.6581 11.555 13.6581 9.00212C13.6581 6.44923 11.587 4.37817 9.03411 4.37817ZM9.03411 12.0016C7.37801 12.0016 6.03466 10.6584 6.03466 9.00212C6.03466 7.34589 7.37801 6.00268 9.03411 6.00268C10.6903 6.00268 12.0335 7.34589 12.0335 9.00212C12.0335 10.6584 10.6903 12.0016 9.03411 12.0016Z" fill="#4D4D4D"/>
<path id="Vector_3" d="M14.9189 4.19533C14.9189 4.79145 14.4355 5.27481 13.8393 5.27481C13.2431 5.27481 12.7598 4.79145 12.7598 4.19533C12.7598 3.59906 13.2431 3.11584 13.8393 3.11584C14.4355 3.11584 14.9189 3.59906 14.9189 4.19533Z" fill="#4D4D4D"/>
</g>
<defs>
<clipPath id="clip0_602_8211">
<rect width="18" height="18" fill="white" transform="translate(0 0.000366211)"/>
</clipPath>
</defs>
</svg>
