<svg width="18" height="18" viewBox="0 0 18 18" fill="none" xmlns="http://www.w3.org/2000/svg">
<g id="pinterest 1" clip-path="url(#clip0_602_1059)">
<path id="Vector" d="M9.24446 0.000366211C4.31112 0.000366211 1.6875 3.16176 1.6875 6.60891C1.6875 8.20761 2.58079 10.2012 4.01073 10.8335C4.22786 10.9314 4.34599 10.8897 4.39437 10.6883C4.43712 10.5353 4.62501 9.79843 4.71614 9.45079C4.74426 9.33941 4.72964 9.24266 4.63963 9.13803C4.16486 8.589 3.78797 7.58883 3.78797 6.65054C3.78797 4.24631 5.69943 1.91183 8.95195 1.91183C11.7646 1.91183 13.7323 3.73891 13.7323 6.3524C13.7323 9.30566 12.1696 11.3488 10.1389 11.3488C9.01495 11.3488 8.17792 10.4667 8.44343 9.37541C8.76407 8.07598 9.39297 6.67867 9.39297 5.7415C9.39297 4.90109 8.9182 4.2058 7.94841 4.2058C6.80423 4.2058 5.87606 5.33873 5.87606 6.8598C5.87606 7.82622 6.21808 8.47875 6.21808 8.47875C6.21808 8.47875 5.08628 13.051 4.87589 13.9049C4.52038 15.3506 4.92427 17.6918 4.95915 17.8932C4.98052 18.0046 5.1054 18.0394 5.17516 17.9483C5.28654 17.802 6.6546 15.8501 7.03824 14.4393C7.17775 13.9251 7.7504 11.8404 7.7504 11.8404C8.12729 12.5211 9.21521 13.0915 10.374 13.0915C13.8212 13.0915 16.312 10.0617 16.312 6.30177C16.2997 2.69711 13.2148 0.000366211 9.24446 0.000366211Z" fill="#4D4D4D"/>
</g>
<defs>
<clipPath id="clip0_602_1059">
<rect width="18" height="18" fill="white" transform="translate(0 0.000366211)"/>
</clipPath>
</defs>
</svg>
