<svg width="18" height="18" viewBox="0 0 18 18" fill="none" xmlns="http://www.w3.org/2000/svg">
<g id="twitter 1" clip-path="url(#clip0_602_5090)">
<path id="Vector" d="M18 3.41924C17.3306 3.71287 16.6174 3.90749 15.8737 4.00199C16.6388 3.54524 17.2226 2.82749 17.4971 1.96237C16.7839 2.38762 15.9964 2.68799 15.1571 2.85562C14.4799 2.13449 13.5146 1.68787 12.4616 1.68787C10.4186 1.68787 8.77387 3.34612 8.77387 5.37899C8.77387 5.67149 8.79862 5.95274 8.85938 6.22049C5.7915 6.07087 3.07687 4.60049 1.25325 2.36062C0.934875 2.91299 0.748125 3.54524 0.748125 4.22587C0.748125 5.50387 1.40625 6.63674 2.38725 7.29262C1.79437 7.28137 1.21275 7.10924 0.72 6.83812C0.72 6.84937 0.72 6.86399 0.72 6.87862C0.72 8.67187 1.99912 10.1614 3.6765 10.5045C3.37612 10.5866 3.04875 10.626 2.709 10.626C2.47275 10.626 2.23425 10.6125 2.01038 10.563C2.4885 12.0244 3.84525 13.0987 5.4585 13.1336C4.203 14.1157 2.60888 14.7075 0.883125 14.7075C0.5805 14.7075 0.29025 14.694 0 14.6569C1.63462 15.711 3.57188 16.3129 5.661 16.3129C12.4515 16.3129 16.164 10.6879 16.164 5.81212C16.164 5.64899 16.1584 5.49149 16.1505 5.33512C16.8829 4.81537 17.4982 4.16624 18 3.41924Z" fill="#4D4D4D"/>
</g>
<defs>
<clipPath id="clip0_602_5090">
<rect width="18" height="18" fill="white" transform="translate(0 0.000366211)"/>
</clipPath>
</defs>
</svg>
