<svg width="19" height="18" viewBox="0 0 19 18" fill="none" xmlns="http://www.w3.org/2000/svg">
<g id="Star 1">
<g id="Group">
<path id="Vector" d="M9.80993 13.4111L13.3565 15.6577C13.8099 15.9446 14.3724 15.5177 14.2379 14.9884L13.2136 10.9581C13.1847 10.8458 13.188 10.7276 13.2232 10.6172C13.2585 10.5067 13.3242 10.4085 13.4127 10.3337L16.5931 7.68712C17.0105 7.33949 16.7956 6.64593 16.2584 6.61105L12.1055 6.34105C11.9937 6.33312 11.8864 6.29359 11.7962 6.22707C11.706 6.16055 11.6365 6.06977 11.5959 5.9653L10.0467 2.06493C10.0046 1.95408 9.92969 1.85867 9.83204 1.79136C9.7344 1.72404 9.6186 1.68799 9.49999 1.68799C9.38139 1.68799 9.26559 1.72404 9.16795 1.79136C9.0703 1.85867 8.99543 1.95408 8.95324 2.06493L7.40412 5.9653C7.36357 6.06988 7.29413 6.16077 7.20391 6.2274C7.11368 6.29402 7.00637 6.33364 6.89449 6.34162L2.74156 6.61161C2.20493 6.64593 1.98893 7.33949 2.40687 7.68712L5.58724 10.3342C5.67573 10.409 5.74135 10.5072 5.77657 10.6175C5.81179 10.7278 5.81519 10.8459 5.78637 10.9581L4.83687 14.6959C4.67543 15.3309 5.35099 15.8434 5.89437 15.4986L9.19062 13.4111C9.28326 13.3522 9.39077 13.3209 9.50056 13.3209C9.61034 13.3209 9.71785 13.3522 9.81049 13.4111H9.80993Z" fill="#FF6316"/>
</g>
</g>
</svg>
